<svg version="1.1" id="Layer_1" xmlns="http://www.w3.org/2000/svg" xmlns:xlink="http://www.w3.org/1999/xlink" x="0px" y="0px"
	 width="100%" viewBox="0 0 432 304" enable-background="new 0 0 432 304" xml:space="preserve">
<path fill="#808080" opacity="1.000000" stroke="none" 
	d="
M350.781158,265.219604 
	C355.629974,270.055023 360.176331,274.694244 364.835327,279.217438 
	C366.913330,281.234863 367.171844,282.856323 364.916382,285.021698 
	C359.269379,290.443115 353.756775,296.007050 348.277771,301.599579 
	C346.043457,303.880188 344.330017,303.814819 342.031830,301.494934 
	C327.028595,286.350037 311.833954,271.394104 296.894135,256.187500 
	C294.056274,253.298981 291.507111,252.543564 287.660889,253.755859 
	C259.889618,262.509186 231.387970,266.023407 202.378677,264.033020 
	C180.722488,262.547089 159.655411,257.787994 138.989517,250.939301 
	C109.365623,241.121933 81.886017,227.108826 55.940460,209.964813 
	C39.948235,199.397644 24.662609,187.878891 10.391684,175.029343 
	C7.372217,172.310593 7.195106,170.484604 9.832917,167.277924 
	C37.120808,134.105286 68.366302,105.381775 104.606209,82.197762 
	C107.937706,80.066467 111.833397,78.719566 114.701553,74.884621 
	C110.352859,69.128014 104.779678,64.395515 99.710083,59.232605 
	C90.725784,50.082958 81.643761,41.025276 72.433899,32.103287 
	C69.260559,29.029135 68.824234,26.831972 72.430725,23.632948 
	C77.655052,18.998877 82.452782,13.871346 87.287071,8.815273 
	C89.771767,6.216587 91.562134,6.116827 94.249573,8.837789 
	C110.273521,25.061680 126.554359,41.032108 142.549728,57.283718 
	C145.376831,60.156097 147.855362,60.461658 151.341782,59.080101 
	C174.972961,49.715797 199.387390,44.631290 224.941025,45.715069 
	C245.092484,46.569736 264.488464,51.047935 283.252075,58.140766 
	C328.386780,75.202179 365.691315,103.790260 399.371948,137.649719 
	C408.897797,147.226151 417.752991,157.383682 426.484283,167.673080 
	C428.891632,170.510040 428.646973,172.210175 425.919434,174.650406 
	C397.421265,200.147095 365.849701,220.963562 331.277771,237.263474 
	C329.785156,237.967239 328.326080,238.742157 326.166840,239.828293 
	C333.868805,248.998642 342.666046,256.549927 350.781158,265.219604 
M249.496216,71.009933 
	C220.578400,61.008907 193.368240,64.316696 166.344742,81.745796 
	C172.645935,87.727242 178.449509,92.912415 183.842697,98.494110 
	C186.490723,101.234711 188.648117,101.667915 192.067169,99.941292 
	C204.257553,93.785149 217.141510,92.458168 230.456314,95.347305 
	C232.158279,95.716606 234.535522,95.345406 235.168243,97.490051 
	C235.815002,99.682152 233.583649,100.540855 232.282196,101.710617 
	C223.248581,109.830231 220.826569,120.066200 224.161667,131.257584 
	C230.257706,151.713638 255.999207,157.197510 270.746765,141.507553 
	C272.088623,140.079926 273.246887,137.806030 275.453003,138.307175 
	C278.032043,138.893021 277.773132,141.692429 278.190948,143.705032 
	C280.969788,157.091034 278.858002,169.837891 272.974731,182.063110 
	C272.296082,183.473312 270.661011,184.831619 272.260559,186.538483 
	C278.347992,193.034256 284.481201,199.487091 290.611481,205.970978 
	C292.054565,204.611633 292.466766,204.320007 292.752838,203.934692 
	C293.447235,202.999390 294.141541,202.055176 294.733704,201.054138 
	C308.073914,178.503754 311.313049,154.473373 303.807159,129.473999 
	C295.436035,101.592682 277.021149,82.454903 249.496216,71.009933 
M137.211914,193.298218 
	C166.737854,252.941879 236.075333,254.703674 268.859711,227.469650 
	C263.481354,222.395935 257.913361,217.638489 252.970947,212.301666 
	C249.832123,208.912338 247.412354,208.570358 243.138687,210.482941 
	C223.724457,219.171448 204.559631,218.046783 186.210983,207.270462 
	C160.866791,192.385574 147.976547,158.002701 163.101608,128.412628 
	C164.577957,125.524323 164.258316,123.688614 161.947266,121.510300 
	C157.466141,117.286552 153.291443,112.739845 148.900543,108.417618 
	C144.942352,104.521317 143.711670,104.584305 141.102448,109.265892 
	C126.013481,136.339233 124.110176,164.122192 137.211914,193.298218 
z"/>
</svg>