<svg version="1.1" id="Layer_1" xmlns="http://www.w3.org/2000/svg" xmlns:xlink="http://www.w3.org/1999/xlink" x="0px" y="0px"
	 width="100%" viewBox="0 0 432 304" enable-background="new 0 0 432 304" xml:space="preserve">
<path fill="#808080" opacity="1.000000" stroke="none" 
	d="
M215.012665,44.723904 
	C251.109177,44.262543 283.732758,54.936466 314.609375,71.667206 
	C358.318451,95.351341 394.164673,128.379013 425.943787,166.177505 
	C428.533325,169.257538 428.523865,171.432220 425.450592,174.105499 
	C397.784271,198.170685 367.776703,218.664185 334.670654,234.592560 
	C312.201660,245.403091 288.878265,253.599854 264.471283,258.644897 
	C218.096344,268.230835 173.108917,262.613464 129.096680,246.190887 
	C86.760277,230.393600 49.208843,206.657623 15.004488,177.430923 
	C5.370717,169.199127 6.537529,171.019684 13.566778,162.653702 
	C47.139217,122.696892 85.787254,88.918228 133.008270,65.873756 
	C158.681641,53.344814 185.672638,45.322662 215.012665,44.723904 
M158.096100,87.589638 
	C127.138168,115.114738 119.381317,161.784561 139.829971,197.877396 
	C163.494476,239.646393 216.758362,256.017090 259.343048,233.754044 
	C308.176758,208.224060 323.094635,147.056641 291.487518,101.952904 
	C261.113892,58.609352 196.904526,51.439068 158.096100,87.589638 
z"/>
<path fill="#808080" opacity="1.000000" stroke="none" 
	d="
M192.700821,209.414795 
	C170.065262,198.128769 157.983871,179.678131 157.203812,155.229416 
	C156.451126,131.638885 167.547867,113.302361 187.860428,101.056931 
	C200.831604,93.237259 215.051712,91.634636 229.808014,94.199745 
	C231.637268,94.517731 234.249924,94.231995 234.837967,96.654358 
	C235.346893,98.750801 233.134232,99.688126 231.878952,100.914589 
	C217.887985,114.584717 219.878525,135.534958 236.173050,145.808990 
	C246.751190,152.478699 261.213989,150.671738 270.156097,141.606384 
	C271.741852,139.998764 272.871796,137.734543 275.507477,137.490891 
	C283.123901,149.142151 279.717773,174.693344 265.784241,192.464310 
	C248.998901,213.872498 218.617645,220.980087 192.700821,209.414795 
z"/>
</svg>